<svg width="33" height="36" viewBox="0 0 33 36" fill="none" xmlns="http://www.w3.org/2000/svg">
<path fill-rule="evenodd" clip-rule="evenodd" d="M25.8641 12.52C25.5011 12.805 25.0301 13.033 24.4621 13.218C24.5707 14.3289 24.4457 15.4503 24.095 16.5101C23.7444 17.5698 23.1758 18.5444 22.4259 19.3713C21.676 20.1981 20.7613 20.8589 19.7408 21.311C18.7202 21.7632 17.6163 21.9968 16.5001 21.9968C15.3838 21.9968 14.2799 21.7632 13.2594 21.311C12.2388 20.8589 11.3242 20.1981 10.5743 19.3713C9.82435 18.5444 9.25578 17.5698 8.9051 16.5101C8.55442 15.4503 8.4294 14.3289 8.53807 13.218C7.97007 13.033 7.49907 12.805 7.13707 12.52C6.66707 12.15 6.35207 11.656 6.31507 11.062C6.28007 10.511 6.49807 10.043 6.71607 9.713C6.93127 9.40043 7.18682 9.11765 7.47607 8.872C7.61607 8.749 7.75407 8.64 7.88207 8.545C7.84407 8.34 7.80207 8.092 7.76007 7.805C7.58291 6.54448 7.49603 5.27291 7.50007 4C7.50007 3.686 7.63407 3.452 7.69607 3.353C7.77407 3.228 7.86607 3.121 7.95007 3.035C8.11707 2.86 8.33307 2.682 8.57007 2.511C9.05007 2.163 9.71007 1.772 10.4941 1.406C12.0571 0.676 14.2041 0 16.5001 0C18.7971 0 20.9431 0.677 22.5061 1.406C23.1801 1.71428 23.8241 2.08418 24.4301 2.511C24.6671 2.682 24.8831 2.861 25.0501 3.035C25.1341 3.121 25.2261 3.228 25.3041 3.353C25.3661 3.452 25.5001 3.686 25.5001 4C25.5001 5.602 25.3701 6.9 25.2401 7.805C25.1981 8.092 25.1561 8.34 25.1181 8.545C25.2461 8.64 25.3851 8.749 25.5251 8.872C25.7751 9.091 26.0611 9.376 26.2841 9.713C26.5031 10.043 26.7201 10.511 26.6861 11.063C26.6491 11.656 26.3341 12.15 25.8641 12.52ZM9.50207 4.318C9.51707 5.666 9.62907 6.756 9.74007 7.518C9.76607 7.698 9.79207 7.858 9.81607 8H23.1841C23.2091 7.858 23.2341 7.697 23.2601 7.518C23.3701 6.756 23.4831 5.666 23.4981 4.318C23.4202 4.2522 23.3398 4.18948 23.2571 4.13C22.8961 3.869 22.3481 3.54 21.6601 3.219C20.2771 2.573 18.4241 2 16.5001 2C14.5761 2 12.7231 2.573 11.3401 3.219C10.6521 3.54 10.1041 3.869 9.74407 4.129C9.66092 4.18911 9.5802 4.2525 9.50207 4.319V4.318ZM9.28807 10L9.28507 10.002C9.11247 10.117 8.94716 10.2426 8.79007 10.378C8.61207 10.534 8.47007 10.686 8.38407 10.818C8.3636 10.8477 8.34523 10.8788 8.32907 10.911C8.34323 10.9239 8.35791 10.9363 8.37307 10.948C8.52307 11.066 8.84507 11.239 9.47307 11.41C9.59707 11.444 9.73007 11.476 9.87207 11.508L9.88107 11.51C10.3831 11.621 11.0011 11.72 11.7541 11.798C12.8211 11.909 14.1641 11.982 15.8421 11.998L16.5001 12C19.7271 12 21.8141 11.799 23.1201 11.51L23.1281 11.508C23.2711 11.476 23.4041 11.444 23.5281 11.41C24.1551 11.24 24.4781 11.066 24.6271 10.948C24.6422 10.9363 24.6569 10.9239 24.6711 10.911C24.6552 10.8788 24.6372 10.8477 24.6171 10.818C24.5008 10.6545 24.364 10.5067 24.2101 10.378C24.0533 10.2426 23.8883 10.117 23.7161 10.002L23.7121 10H9.28807ZM16.2281 14C18.8701 14 20.9181 13.86 22.4881 13.616C22.5397 14.4313 22.4242 15.2486 22.1488 16.0177C21.8734 16.7868 21.4439 17.4916 20.8865 18.0889C20.3291 18.6861 19.6555 19.1632 18.9072 19.491C18.1589 19.8187 17.3515 19.9902 16.5346 19.9949C15.7177 19.9996 14.9084 19.8375 14.1563 19.5184C13.4043 19.1992 12.7253 18.7299 12.1611 18.1391C11.5968 17.5483 11.1592 16.8485 10.8749 16.0826C10.5907 15.3167 10.4659 14.5009 10.5081 13.685C11.9711 13.887 13.8461 14 16.2281 14ZM8.57807 32.877C8.52596 33.2491 8.4999 33.6243 8.50007 34V35C8.50018 35.2198 8.42785 35.4336 8.29427 35.6082C8.16069 35.7828 7.97329 35.9085 7.76108 35.9658C7.54887 36.0232 7.32366 36.0091 7.1203 35.9256C6.91694 35.8421 6.74675 35.6939 6.63607 35.504C5.96211 35.8696 5.17345 35.9623 4.43307 35.763L2.50107 35.245C1.73283 35.0388 1.07793 34.5359 0.680377 33.8469C0.282825 33.158 0.175165 32.3393 0.381069 31.571L1.15707 28.673C1.36307 27.9046 1.86586 27.2494 2.55485 26.8517C3.24384 26.4539 4.06261 26.3461 4.83107 26.552L6.76307 27.069C7.43507 27.249 7.99307 27.644 8.38107 28.16C9.30679 26.8714 10.5262 25.822 11.9383 25.0986C13.3503 24.3751 14.9145 23.9986 16.5011 24C18.0868 23.999 19.65 24.3755 21.0614 25.0986C22.4727 25.8216 23.6915 26.8704 24.6171 28.158C25.019 27.6249 25.588 27.2419 26.2331 27.07L28.1651 26.553C28.9334 26.3471 29.752 26.4548 30.441 26.8523C31.13 27.2499 31.6329 27.9048 31.8391 28.673L32.6161 31.572C32.718 31.9526 32.7439 32.3495 32.6925 32.7401C32.641 33.1307 32.5131 33.5073 32.316 33.8485C32.119 34.1897 31.8566 34.4887 31.544 34.7285C31.2314 34.9682 30.8746 35.1441 30.4941 35.246L28.5631 35.763C27.824 35.9624 27.0366 35.8708 26.3631 35.507C26.252 35.6967 26.0816 35.8445 25.8782 35.9276C25.6747 36.0107 25.4495 36.0244 25.2375 35.9667C25.0254 35.909 24.8383 35.783 24.705 35.6083C24.5717 35.4336 24.4997 35.2198 24.5001 35V34C24.5002 33.6243 24.4742 33.2491 24.4221 32.877L19.2181 34.272C18.9765 34.789 18.5925 35.2265 18.111 35.5329C17.6296 35.8394 17.0708 36.0022 16.5001 36.0022C15.9294 36.0022 15.3705 35.8394 14.8891 35.5329C14.4077 35.2265 14.0236 34.789 13.7821 34.272L8.57807 32.877ZM13.6201 32.157C13.7543 31.7011 13.9946 31.2835 14.3214 30.9385C14.6482 30.5934 15.0521 30.3308 15.5001 30.172V26.062C14.0974 26.2393 12.7667 26.7848 11.6431 27.643C10.5196 28.5011 9.6432 29.6414 9.10307 30.948L13.6201 32.157ZM23.8971 30.947C23.3568 29.6406 22.4804 28.5005 21.3568 27.6425C20.2332 26.7845 18.9026 26.2392 17.5001 26.062V30.171C18.4041 30.491 19.1101 31.231 19.3801 32.158L23.8971 30.948V30.947ZM26.0441 30.227C26.01 30.1001 26.0013 29.9678 26.0185 29.8376C26.0356 29.7074 26.0782 29.5818 26.1438 29.4681C26.2095 29.3543 26.2969 29.2546 26.4011 29.1746C26.5053 29.0947 26.6242 29.036 26.7511 29.002L28.6831 28.484C28.9391 28.4156 29.2119 28.4516 29.4414 28.5842C29.6709 28.7167 29.8384 28.935 29.9071 29.191L30.6841 32.089C30.7181 32.2159 30.7268 32.3482 30.7097 32.4784C30.6926 32.6086 30.65 32.7342 30.5843 32.8479C30.5187 32.9617 30.4312 33.0614 30.3271 33.1414C30.2229 33.2213 30.1039 33.28 29.9771 33.314L28.0451 33.832C27.9181 33.866 27.7858 33.8747 27.6555 33.8575C27.5252 33.8403 27.3996 33.7976 27.2858 33.7319C27.1721 33.6661 27.0724 33.5786 26.9925 33.4743C26.9125 33.37 26.854 33.251 26.8201 33.124L26.0441 30.227ZM4.31407 28.484C4.18714 28.4498 4.05473 28.441 3.92439 28.458C3.79406 28.4751 3.66836 28.5177 3.55449 28.5833C3.44062 28.649 3.34082 28.7365 3.26079 28.8407C3.18075 28.945 3.12206 29.064 3.08807 29.191L2.31207 32.088C2.27804 32.2149 2.26933 32.3472 2.28645 32.4774C2.30357 32.6076 2.34617 32.7332 2.41182 32.847C2.47747 32.9607 2.56489 33.0604 2.66909 33.1404C2.77328 33.2203 2.8922 33.279 3.01907 33.313L4.95107 33.831C5.07793 33.865 5.21024 33.8737 5.34047 33.8566C5.47069 33.8395 5.59626 33.7969 5.71002 33.7312C5.82377 33.6656 5.92348 33.5782 6.00345 33.474C6.08341 33.3698 6.14207 33.2509 6.17607 33.124L6.95207 30.226C6.98625 30.0991 6.99507 29.9667 6.97802 29.8363C6.96098 29.706 6.91841 29.5803 6.85274 29.4664C6.78708 29.3526 6.69961 29.2528 6.59534 29.1727C6.49107 29.0927 6.37204 29.034 6.24507 29L4.31307 28.483L4.31407 28.484ZM17.5001 33C17.5001 33.2652 17.3947 33.5196 17.2072 33.7071C17.0196 33.8946 16.7653 34 16.5001 34C16.2349 34 15.9805 33.8946 15.793 33.7071C15.6054 33.5196 15.5001 33.2652 15.5001 33C15.5001 32.7348 15.6054 32.4804 15.793 32.2929C15.9805 32.1054 16.2349 32 16.5001 32C16.7653 32 17.0196 32.1054 17.2072 32.2929C17.3947 32.4804 17.5001 32.7348 17.5001 33Z" fill="#253572"/>
</svg>
