<svg width="110" height="80" viewBox="0 0 110 80" fill="none" xmlns="http://www.w3.org/2000/svg">
<path fill-rule="evenodd" clip-rule="evenodd" d="M27.9068 36.4606V35.6566C27.9068 28.0271 24.6908 24.2168 18.2586 24.2168C15.1824 24.2168 12.6829 24.811 10.769 26.0083V49.1152C12.6829 49.7881 14.7279 50.1202 16.8953 50.1202C24.2363 50.1202 27.9068 45.567 27.9068 36.4431M53.9326 22.5126C48.5667 22.5126 45.6565 25.9384 45.2282 32.8075H62.2787C62.1389 25.9384 59.351 22.5126 53.9326 22.5126ZM86.6702 35.7352V5.87286C86.6702 3.89777 87.6316 2.91896 89.5542 2.91896H92.2896C94.2647 2.91896 95.2435 3.89777 95.2435 5.87286V31.6889C95.8378 31.4442 96.2748 31.2956 96.502 31.2607C97.1837 31.1645 97.9964 31.8025 98.6431 32.7813C89.7902 40.6555 79.233 46.2224 68.8332 49.9192C62.3399 52.2264 55.4183 54.0791 48.3569 55.3201C45.9186 54.3763 43.5415 52.943 41.313 50.9242C38.7961 48.652 37.2142 45.3747 36.5675 41.0837C35.2042 50.5746 29.646 55.7571 19.8929 56.6223C13.7316 56.0018 7.7976 54.7171 2.30055 52.6459C2.23064 52.3575 2.19568 52.0516 2.19568 51.7195V5.43589C2.19568 3.7492 3.06087 2.9277 4.79127 2.9277H8.24331C9.93 2.9277 10.769 3.75794 10.769 5.43589V19.8383C14.1773 18.0555 17.7255 17.1728 21.4222 17.1728C26.4212 17.1728 30.2402 18.7459 32.9058 21.8746C34.7585 24.0682 35.9733 26.8823 36.5413 30.3168C37.8522 20.7035 43.4629 15.8969 53.3646 15.8969C59.0801 15.8969 63.3449 17.3738 66.159 20.354C68.9643 23.3341 70.3801 28.0096 70.4325 34.3894V35.3245C70.4325 37.4394 69.4625 38.4969 67.5485 38.4969H45.3069C45.5516 42.2897 46.6353 43.924 48.5492 45.4796C54.2035 50.0765 60.7843 48.416 66.3425 45.8903C67.7495 45.2524 69.9693 44.1512 72.5824 42.8403V5.87286C72.5824 3.89777 73.5525 2.91896 75.4664 2.91896H78.2018C80.1769 2.91896 81.1557 3.89777 81.1557 5.87286V38.5231C83.0434 37.5705 84.9224 36.6266 86.6877 35.744L86.6702 35.7352Z" fill="#253572"/>
<path d="M103.126 49.0452C102.13 45.3397 101.125 41.6343 100.129 37.9288C98.6082 32.2832 99.7793 33.4455 94.7717 37.3695C86.7315 43.6705 77.5901 48.2849 68.5798 51.4835C47.116 59.0955 20.8805 61.8047 0.867349 53.7557C-2.13025 52.5497 3.05219 55.1628 10.1223 57.8894C19.587 61.5425 26.0542 62.9495 36.0257 63.5176C59.5433 64.8372 88.7939 60.6773 101.947 50.0503C102.357 49.7182 102.751 49.3773 103.135 49.0365" fill="#FF6600"/>
<path d="M103.135 3.4433H104.534C105.145 3.4433 105.53 3.82783 105.53 4.42211C105.53 5.01639 105.145 5.4184 104.534 5.4184H103.135V3.4433ZM106.858 4.36093C106.858 3.22482 106.037 2.4645 104.839 2.4645H101.903V8.87918H103.135V6.28359H103.922L105.539 8.87918H106.981L105.276 6.23116C106.22 6.07385 106.849 5.34848 106.849 4.3522L106.858 4.36093ZM104.21 10.26C101.545 10.26 99.6045 8.31986 99.6045 5.67184C99.6045 3.02381 101.545 1.11864 104.21 1.11864C106.876 1.11864 108.816 3.02381 108.816 5.67184C108.816 8.31986 106.876 10.26 104.21 10.26ZM104.21 0C100.854 0 98.4335 2.38584 98.4335 5.68058C98.4335 8.97531 100.854 11.3874 104.21 11.3874C107.566 11.3874 109.987 9.00153 109.987 5.68058C109.987 2.35962 107.566 0 104.21 0Z" fill="#253572"/>
<path d="M3.16579 71.584H0.701294V70.1245H7.42185V71.584H4.95736V77.8414H3.16579V71.584Z" fill="#253572"/>
<path d="M11.8178 71.8199V73.4105C11.678 73.4018 11.5644 73.3843 11.4333 73.3843C10.4807 73.3843 9.8602 73.8999 9.8602 75.036V77.8414H8.13855V71.9073H9.78155V72.6939C10.201 72.1171 10.9089 71.8199 11.8178 71.8199Z" fill="#253572"/>
<path d="M18.0577 74.4592V77.8414H16.4496V77.0985C16.1263 77.6404 15.5145 77.9288 14.6406 77.9288C13.251 77.9288 12.4208 77.1597 12.4208 76.1285C12.4208 75.0972 13.1636 74.3544 14.9639 74.3544H16.3273C16.3273 73.6115 15.8903 73.1833 14.9639 73.1833C14.3347 73.1833 13.688 73.393 13.251 73.7339L12.6305 72.5278C13.2772 72.0647 14.2386 71.8112 15.1911 71.8112C17.0002 71.8112 18.0489 72.6502 18.0489 74.4505L18.0577 74.4592ZM16.336 75.9712V75.3681H15.1562C14.3522 75.3681 14.0987 75.6653 14.0987 76.0585C14.0987 76.4868 14.4658 76.7752 15.0688 76.7752C15.6456 76.7752 16.135 76.513 16.336 75.9712ZM25.6784 74.4505V77.8501H23.9567V74.7214C23.9567 73.7601 23.5197 73.3231 22.7507 73.3231C21.9204 73.3231 21.3262 73.83 21.3262 74.9224V77.8588H19.6045V71.9248H21.2475V72.6152C21.7107 72.1084 22.4011 71.8287 23.2139 71.8287C24.6122 71.8287 25.6696 72.6415 25.6696 74.4505H25.6784ZM26.6572 77.2995L27.234 76.0673C27.7671 76.4081 28.5711 76.6441 29.2965 76.6441C30.0917 76.6441 30.3889 76.4343 30.3889 76.1022C30.3889 75.1322 26.8057 76.1285 26.8057 73.7514C26.8057 72.624 27.8195 71.8287 29.5499 71.8287C30.3627 71.8287 31.2716 72.0122 31.8309 72.3443L31.2541 73.5678C30.6685 73.2357 30.083 73.1309 29.5412 73.1309C28.7721 73.1309 28.44 73.3756 28.44 73.6814C28.44 74.6952 32.0231 73.7164 32.0231 76.0498C32.0231 77.151 31.0006 77.9375 29.2178 77.9375C28.2128 77.9375 27.199 77.6578 26.6484 77.2995H26.6572ZM39.5477 74.8875C39.5477 76.7489 38.2543 77.9462 36.5938 77.9462C35.851 77.9462 35.248 77.719 34.811 77.2296V80H33.0893V71.9248H34.7323V72.6065C35.1606 72.0909 35.7985 71.8374 36.5938 71.8374C38.263 71.8374 39.5477 73.026 39.5477 74.8962V74.8875ZM37.8086 74.8875C37.8086 73.865 37.1619 73.2445 36.2967 73.2445C35.4315 73.2445 34.7848 73.865 34.7848 74.8875C34.7848 75.91 35.4315 76.5305 36.2967 76.5305C37.1619 76.5305 37.8086 75.91 37.8086 74.8875ZM40.2556 74.8875C40.2556 73.1046 41.6364 71.8287 43.5241 71.8287C45.4118 71.8287 46.7752 73.0959 46.7752 74.8875C46.7752 76.679 45.4118 77.9462 43.5241 77.9462C41.6364 77.9462 40.2556 76.679 40.2556 74.8875ZM45.0273 74.8875C45.0273 73.865 44.3806 73.2445 43.5154 73.2445C42.6502 73.2445 41.9947 73.865 41.9947 74.8875C41.9947 75.91 42.6589 76.5305 43.5154 76.5305C44.3718 76.5305 45.0273 75.91 45.0273 74.8875ZM51.5993 71.8287V73.4193C51.4594 73.4105 51.3458 73.393 51.2147 73.393C50.2622 73.393 49.6417 73.9087 49.6417 75.0448V77.8501H47.92V71.9161H49.563V72.7026C49.9825 72.1258 50.6904 71.8287 51.5993 71.8287Z" fill="#253572"/>
<path d="M56.668 77.5617C56.3185 77.8152 55.7941 77.9375 55.2698 77.9375C53.8715 77.9375 53.05 77.2209 53.05 75.8051V73.3669H52.1323V72.0472H53.05V70.6052H54.7716V72.0472H56.2486V73.3669H54.7716V75.7789C54.7716 76.2858 55.0513 76.5655 55.5145 76.5655C55.7679 76.5655 56.0213 76.4868 56.2049 76.347L56.668 77.5617ZM60.2774 77.0898L60.8804 75.744C61.5271 76.2159 62.4972 76.548 63.4236 76.548C64.481 76.548 64.9093 76.1984 64.9093 75.7177C64.9093 74.2758 60.4172 75.2633 60.4172 72.3968C60.4172 71.0859 61.4747 69.9935 63.6683 69.9935C64.6383 69.9935 65.6346 70.2207 66.3512 70.6751L65.8007 72.0297C65.084 71.619 64.3412 71.4267 63.6595 71.4267C62.6021 71.4267 62.1913 71.82 62.1913 72.3094C62.1913 73.7339 66.6833 72.7464 66.6833 75.5867C66.6833 76.8801 65.6171 77.9812 63.4061 77.9812C62.1826 77.9812 60.9503 77.6142 60.2599 77.0898H60.2774ZM73.5787 75.3682H69.0867C69.2527 76.111 69.8819 76.5567 70.7821 76.5567C71.4113 76.5567 71.8658 76.3732 72.2678 75.9799L73.1854 76.9762C72.6348 77.6054 71.8046 77.9375 70.7384 77.9375C68.6846 77.9375 67.3563 76.6441 67.3563 74.8788C67.3563 73.1134 68.7109 71.82 70.5199 71.82C72.329 71.82 73.6049 72.9911 73.6049 74.8962C73.6049 75.0273 73.5787 75.2196 73.5699 75.3594L73.5787 75.3682ZM69.0692 74.3631H71.9881C71.8658 73.6116 71.3065 73.1309 70.5287 73.1309C69.7508 73.1309 69.1828 73.6028 69.0604 74.3631H69.0692ZM78.4465 71.8287V73.4193C78.3067 73.4106 78.1931 73.3931 78.062 73.3931C77.1094 73.3931 76.4889 73.9087 76.4889 75.0448V77.8501H74.7672V71.9161H76.4102V72.7027C76.8297 72.1259 77.5376 71.8287 78.4465 71.8287Z" fill="#253572"/>
<path d="M85.5604 71.9074L83.061 77.8414H81.2869L78.7961 71.9074H80.5702L82.2132 75.9449L83.9087 71.9074H85.5604ZM86.0585 70.1245C86.0585 69.5827 86.4868 69.1632 87.1247 69.1632C87.7627 69.1632 88.1909 69.5565 88.1909 70.0896C88.1909 70.6664 87.7627 71.0859 87.1247 71.0859C86.4868 71.0859 86.0585 70.6664 86.0585 70.1245ZM86.2683 71.9074H87.9899V77.8414H86.2683V71.9074ZM89.1435 74.87C89.1435 73.0872 90.5244 71.8112 92.4558 71.8112C93.7055 71.8112 94.6843 72.3531 95.1125 73.3231L93.7754 74.0398C93.452 73.4805 92.9801 73.227 92.4383 73.227C91.5643 73.227 90.8827 73.83 90.8827 74.87C90.8827 75.91 91.5643 76.513 92.4383 76.513C92.9801 76.513 93.452 76.2683 93.7754 75.7002L95.1125 76.4256C94.6843 77.3782 93.6967 77.9288 92.4558 77.9288C90.5244 77.9288 89.1435 76.6616 89.1435 74.87Z" fill="#253572"/>
<path d="M101.807 75.3594H97.3147C97.4808 76.1022 98.11 76.5479 99.0102 76.5479C99.6394 76.5479 100.094 76.3644 100.496 75.9712L101.414 76.9674C100.863 77.5967 100.033 77.9288 98.9665 77.9288C96.9127 77.9288 95.5844 76.6353 95.5844 74.87C95.5844 73.1046 96.939 71.8112 98.748 71.8112C100.557 71.8112 101.833 72.9823 101.833 74.8875C101.833 75.0186 101.807 75.2108 101.798 75.3507L101.807 75.3594ZM97.2973 74.3544H100.216C100.094 73.6028 99.5345 73.1221 98.7567 73.1221C97.9789 73.1221 97.4109 73.594 97.2885 74.3544H97.2973ZM102.419 77.2908L102.995 76.0585C103.528 76.3994 104.332 76.6353 105.058 76.6353C105.853 76.6353 106.15 76.4256 106.15 76.0935C106.15 75.1234 102.567 76.1197 102.567 73.7426C102.567 72.6152 103.581 71.82 105.311 71.82C106.124 71.82 107.033 72.0035 107.592 72.3356L107.015 73.5591C106.43 73.227 105.844 73.1221 105.303 73.1221C104.533 73.1221 104.201 73.3668 104.201 73.6727C104.201 74.6865 107.784 73.7077 107.784 76.0411C107.784 77.1422 106.762 77.9288 104.979 77.9288C103.974 77.9288 102.96 77.6491 102.41 77.2908H102.419Z" fill="#253572"/>
</svg>
